<?xml version="1.0" standalone="no"?>
<!DOCTYPE svg PUBLIC "-//W3C//DTD SVG 20010904//EN"
 "http://www.w3.org/TR/2001/REC-SVG-20010904/DTD/svg10.dtd">
<svg version="1.0" xmlns="http://www.w3.org/2000/svg"
 width="556.000000pt" height="439.000000pt" viewBox="0 0 556.000000 439.000000"
 preserveAspectRatio="xMidYMid meet">
<metadata>
Created by potrace 1.16, written by Peter Selinger 2001-2019
</metadata>
<g transform="translate(0.000000,439.000000) scale(0.100000,-0.100000)"
fill="#000000" stroke="none">
<path d="M1063 3348 c-4 -7 -30 -31 -58 -53 -27 -22 -56 -48 -64 -59 -8 -10
-23 -26 -34 -35 -19 -16 -55 -53 -116 -121 -17 -19 -34 -43 -37 -52 -3 -10
-10 -18 -15 -18 -5 0 -9 -7 -9 -15 0 -8 -4 -15 -8 -15 -22 0 -212 -323 -199
-337 3 -2 -8 -29 -24 -60 -16 -30 -32 -73 -35 -94 -4 -22 -11 -42 -15 -45 -5
-3 -9 -16 -9 -29 0 -13 -5 -27 -11 -31 -7 -4 -9 -24 -6 -50 2 -24 1 -41 -4
-38 -5 3 -10 -7 -11 -23 -1 -15 -4 -44 -6 -63 -5 -41 -5 -354 0 -420 5 -65 18
-142 28 -165 15 -38 40 -127 40 -146 0 -11 5 -19 10 -19 6 0 10 -11 10 -25 0
-14 5 -25 10 -25 6 0 10 -9 10 -20 0 -11 5 -20 11 -20 6 0 8 -7 5 -16 -3 -9 3
-28 14 -44 11 -15 28 -48 39 -72 10 -24 25 -51 32 -59 8 -8 23 -31 34 -52 11
-21 28 -47 37 -57 10 -11 18 -23 18 -27 0 -4 14 -24 30 -43 16 -19 34 -40 40
-47 5 -7 10 -15 10 -18 0 -3 20 -26 45 -52 25 -25 45 -47 45 -49 0 -6 96 -99
140 -134 23 -19 48 -40 54 -46 9 -9 23 -1 57 28 24 22 54 47 67 55 22 15 22
15 -45 77 -87 80 -107 99 -176 176 -69 79 -69 78 -93 115 -10 17 -33 49 -51
73 -18 24 -33 50 -33 57 0 7 -3 15 -8 17 -7 3 -37 58 -83 150 -10 20 -26 58
-34 85 -9 26 -20 57 -24 68 -19 44 -41 129 -41 156 0 21 -5 29 -17 30 -10 0
-13 3 -8 5 7 3 6 44 -2 127 -11 96 -11 151 -2 260 7 76 16 140 20 143 5 3 9
19 9 35 0 31 24 120 41 151 5 10 9 29 9 43 0 14 5 25 10 25 6 0 10 7 10 15 0
21 33 95 42 95 5 0 8 6 8 14 0 17 32 80 43 84 4 2 7 8 7 14 0 11 101 167 123
190 7 7 30 35 52 63 49 61 131 145 205 208 44 38 52 50 40 57 -8 4 -26 18 -39
29 -13 11 -28 18 -34 14 -5 -3 -8 -2 -5 3 3 5 -5 17 -17 27 -19 13 -26 14 -32
5z"/>
<path d="M2567 2887 c-3 -7 -4 -89 -3 -183 1 -167 1 -169 24 -172 12 -2 24 3
26 10 6 18 14 330 9 346 -6 16 -49 16 -56 -1z"/>
<path d="M2271 2757 c-8 -11 5 -33 57 -98 37 -47 78 -93 90 -103 22 -17 25
-17 40 -3 18 18 24 7 -82 135 -69 83 -84 93 -105 69z"/>
<path d="M1704 2503 c-111 -115 -195 -226 -241 -320 -35 -72 -38 -82 -37 -167
0 -81 4 -98 32 -156 49 -102 148 -193 267 -245 l53 -24 -19 -53 c-28 -75 -49
-118 -57 -118 -4 0 -43 10 -87 22 -105 28 -148 29 -153 4 -2 -10 0 -22 5 -27
16 -16 507 -141 537 -137 13 2 22 12 24 25 3 23 4 23 -168 71 -68 19 -73 26
-50 77 4 11 16 41 27 67 l18 48 111 0 c177 0 305 43 420 141 72 62 104 111
141 218 29 85 33 445 5 473 -6 6 -134 42 -284 80 -150 38 -307 78 -348 88 -41
11 -83 20 -93 20 -11 0 -57 -39 -103 -87z m261 -18 c50 -13 179 -46 288 -73
110 -28 204 -55 210 -61 13 -13 17 -313 5 -344 -7 -16 -37 -17 -485 -15 l-478
3 -3 22 c-2 12 4 50 13 84 20 82 101 201 218 325 79 84 93 95 116 89 14 -3 67
-17 116 -30z"/>
<path d="M3275 2540 c-104 -27 -256 -66 -337 -86 -80 -20 -152 -40 -158 -44
-20 -12 -30 -81 -30 -215 0 -193 25 -299 98 -403 101 -145 279 -225 495 -221
87 1 102 -1 114 -17 7 -10 13 -23 13 -29 0 -7 7 -26 16 -43 8 -17 16 -43 17
-58 2 -26 -2 -28 -103 -56 -120 -33 -144 -49 -117 -75 18 -19 23 -18 387 77
163 43 193 58 170 84 -17 21 -40 20 -141 -8 -83 -23 -119 -22 -119 5 0 6 -9
29 -19 52 -40 87 -40 88 37 124 180 85 282 227 282 393 0 144 -76 274 -293
498 -53 55 -76 72 -96 71 -14 0 -111 -23 -216 -49z m294 -108 c159 -173 235
-303 229 -390 l-3 -47 -474 -3 c-261 -1 -478 1 -482 5 -8 8 -14 171 -11 280 1
37 8 67 16 76 8 7 110 38 227 67 118 30 252 64 299 76 47 12 93 23 102 23 9 1
53 -39 97 -87z"/>
</g>
</svg>
